<?xml version="1.0" encoding="utf-8"?>
<svg version="1.0" id="katman_1" x="0px" y="0px" viewBox="0 0 1190.55 841.89" style="enable-background:new 0 0 1190.55 841.89;" xmlns="http://www.w3.org/2000/svg">
  <style type="text/css">
	.st0{fill:#E30613;}
</style>
  <path class="st0" d="M244.07,356.34c-15.87,0.12-30.65,8.11-39.44,21.32c-8.79-13.21-23.57-21.2-39.44-21.32 c-26.06-0.01-47.19,21.11-47.2,47.17c0,0.01,0,0.01,0,0.02c0,16.54,10.47,28.47,21.42,39.5l42.79,40.45 c1.42,1.33,3.64,1.27,4.98-0.15c0.62-0.66,0.97-1.54,0.96-2.45V449.4c0-9.11,7.39-16.5,16.5-16.5s16.5,7.39,16.5,16.5v31.47 c0.01,1.94,1.59,3.52,3.53,3.51c0.89,0,1.75-0.35,2.4-0.96l42.79-40.4c10.95-11.02,21.42-22.95,21.42-39.5 c0-26.06-21.13-47.18-47.18-47.18C244.08,356.34,244.08,356.34,244.07,356.34z M161.79,439.91c-0.62,0.71-1.51,1.11-2.44,1.11 c-0.8,0-1.57-0.29-2.17-0.81c-14.08-12.5-21.23-25.54-21.23-38.76v-0.15c0-11.36,6.93-24.29,16.13-30.06 c1.55-0.93,3.56-0.42,4.49,1.13c0.9,1.51,0.45,3.46-1.02,4.42c-7.33,4.61-13.07,15.37-13.07,24.51v0.15 c0,11.27,6.41,22.66,19.03,33.82c1.36,1.18,1.5,3.24,0.32,4.6C161.81,439.88,161.8,439.9,161.79,439.91z M182.83,427.78 c-0.58,1.04-1.67,1.68-2.86,1.68c-0.54-0.01-1.07-0.16-1.54-0.42c-9.55-5.35-15.99-15.85-16.02-26.14v-0.14 c-0.03-9.78,5.37-18.78,14.01-23.37c1.6-0.85,3.59-0.24,4.44,1.36c0.85,1.6,0.24,3.59-1.36,4.44c-6.54,3.44-10.63,10.23-10.61,17.62 c0,8.04,5.12,16.28,12.68,20.52c1.57,0.87,2.14,2.86,1.27,4.43C182.84,427.77,182.84,427.78,182.83,427.78z M204.64,419.37 c-7.84,0-14.19-6.35-14.19-14.19s6.35-14.19,14.19-14.19c7.84,0,14.19,6.35,14.19,14.19C218.83,413.02,212.47,419.37,204.64,419.37 L204.64,419.37z M230.89,428.98c-0.47,0.26-1,0.4-1.54,0.42c-1.8,0.02-3.27-1.43-3.29-3.23c-0.01-1.23,0.67-2.36,1.75-2.92 c7.45-4.17,12.2-11.9,12.56-20.43c-0.01-7.38-4.11-14.15-10.65-17.56c-1.6-0.85-2.21-2.83-1.36-4.44s2.83-2.21,4.44-1.36 c8.68,4.54,14.12,13.51,14.14,23.31v0.11c-0.08,10.35-6.5,20.82-16.05,26.17V428.98z M273.28,401.44c0,13.22-7.15,26.26-21.23,38.76 c-0.6,0.52-1.37,0.81-2.17,0.81c-1.81-0.01-3.27-1.48-3.26-3.29c0-0.93,0.4-1.81,1.1-2.43c12.62-11.19,19.03-22.59,19.03-33.82 v-0.15c0-9.15-5.73-19.99-13.07-24.51c-1.51-0.99-1.94-3.02-0.94-4.53c0.96-1.47,2.91-1.92,4.42-1.02 c9.22,5.77,16.13,18.7,16.13,30.06L273.28,401.44z"/>
  <path d="M692.39,391.91c0.02-2.63,2.13-4.77,4.77-4.83h32.02c10.5,0,18.93,3.18,24.31,8.56c4.37,4.53,6.74,10.62,6.6,16.91v0.25 c0,14.05-9.53,22.25-22.85,24.81l21.26,27.37c0.94,0.94,1.49,2.2,1.54,3.54c-0.2,2.56-2.28,4.56-4.84,4.66 c-1.84-0.07-3.53-1.03-4.52-2.58l-24.08-31.24H702v28.92c0,2.67-2.16,4.83-4.82,4.83c-2.67,0-4.83-2.16-4.83-4.82c0,0,0,0,0-0.01 L692.39,391.91z M728.37,430.64c12.84,0,21.99-6.6,21.99-17.59v-0.25c0-10.5-8.06-16.91-21.86-16.91h-26.44v34.75H728.37z" style="fill: rgb(255, 255, 255);"/>
  <path d="M770.69,466.2l34.72-75.87c0.89-2.62,3.38-4.36,6.15-4.29h0.48c2.72-0.05,5.16,1.69,5.98,4.29l34.72,75.75 c0.36,0.77,0.56,1.61,0.61,2.46c0,2.55-2.07,4.61-4.61,4.61c-2.17-0.09-4.06-1.5-4.77-3.55l-8.93-19.68h-46.98l-8.92,19.99 c-0.68,1.98-2.55,3.3-4.64,3.27c-2.43,0-4.4-1.97-4.4-4.4c0-0.01,0-0.01,0-0.02C770.09,467.88,770.3,467,770.69,466.2z M831.19,441.16l-19.66-43.74l-19.68,43.74H831.19z" style="fill: rgb(255, 255, 255);"/>
  <path d="M866.98,391.91c-0.01-2.66,2.11-4.83,4.77-4.89h24.94c26.94,0.06,45.39,18.51,45.39,42.53v0.25 c0,24.06-18.45,42.77-45.39,42.77h-24.94c-2.65-0.07-4.77-2.24-4.77-4.89V391.91z M896.69,463.65c21.62,0,35.36-14.67,35.36-33.62 v-0.23c0-18.94-13.84-33.82-35.36-33.82H876.7v67.65L896.69,463.65z" style="fill: rgb(255, 255, 255);"/>
  <path d="M958.61,391.3c-0.15-2.66,1.89-4.94,4.55-5.09c2.66-0.15,4.94,1.89,5.09,4.55c0.01,0.18,0.01,0.36,0,0.54v76.98 c0.15,2.66-1.89,4.94-4.55,5.09c-2.66,0.15-4.94-1.89-5.09-4.55c-0.01-0.18-0.01-0.36,0-0.54V391.3z" style="fill: rgb(255, 255, 255);"/>
  <path d="M984.75,430.03v-0.23c0-23.58,17.73-44.23,43.76-44.23s43.49,20.4,43.49,43.99v0.25c0,23.58-17.73,44.23-43.76,44.23 S984.75,453.61,984.75,430.03z M1061.99,430.03v-0.23c0-19.43-14.18-35.36-33.82-35.36c-19.65,0-33.39,15.71-33.39,35.12v0.25 c0,19.43,14.18,35.36,33.73,35.36C1048.06,465.16,1061.99,449.47,1061.99,430.03z" style="fill: rgb(255, 255, 255);"/>
  <path d="M349.14,385.95h24.08v32.42h30.75v-32.42h24v86.62h-24v-32.92h-30.75v32.92h-24.08V385.95z" style="fill: rgb(255, 255, 255);"/>
  <path d="M434.9,439.36v-0.25c0-19.56,13.98-35.02,33.82-35.02c23.06,0,33.82,16.91,33.82,36.64c0,1.54,0,3.2-0.12,4.81h-44.89 c1.86,7.3,7.18,11.02,14.48,11.02c5.57,0,10.02-2.11,14.85-6.81l12.99,10.76c-6.44,8.16-15.71,13.61-29.09,13.61 C449.73,474.17,434.9,460.19,434.9,439.36z M480.42,433.21c0.27-6.24-4.56-11.53-10.81-11.8c-0.27-0.01-0.54-0.01-0.81-0.01 c-6.15,0-11.08,4.78-11.64,11.81H480.42z" style="fill: rgb(255, 255, 255);"/>
  <path d="M581.51,405.63h23.51v13.48c3.83-9.22,10.02-15.1,21.16-14.61v24.75h-1.98c-12.3,0-19.17,7.06-19.17,22.52v20.79h-23.51 V405.63z" style="fill: rgb(255, 255, 255);"/>
  <path d="M640.85,451.78v-27.23h-7.9v-18.93h7.9v-17h23.52v16.91h15.59v19.02h-15.59v22.65c0,4.7,2.11,6.67,6.43,6.67 c3.1-0.06,6.15-0.82,8.92-2.21v18.45c-5.03,2.66-10.66,3.99-16.34,3.86C649.28,473.94,640.85,467.72,640.85,451.78z" style="fill: rgb(255, 255, 255);"/>
  <path d="M326.09,379.71c-6.89,0-12.48,5.59-12.48,12.48c0,6.89,5.59,12.48,12.48,12.48s12.48-5.59,12.48-12.48c0,0,0,0,0,0 c0.01-6.89-5.57-12.48-12.45-12.48C326.11,379.71,326.1,379.71,326.09,379.71z" style="fill: rgb(255, 255, 255);"/>
  <path d="M572.42,438.93c0-20.79-14.85-34.78-35.88-34.78c-13.36,0-22.65,5.44-29.09,13.62l13.01,10.76 c4.83-4.7,9.22-6.83,14.84-6.83c7.23,0,12.5,3.64,14.42,10.76v0.51h-15.48c-19.23,0.26-29.33,7.43-29.33,21 c0,13.08,9.32,20.09,25.37,20.09c7.45,0.17,14.64-2.74,19.86-8.06v6.46h22.25v-32.66c0-0.23,0-0.43,0-0.65L572.42,438.93z M537.31,459.19c-6.15,0.26-9.72-3.24-9.72-7.46c0-4.21,3.24-6.15,9.15-6.15h13.41v0.72C550.02,449.03,548.95,458.7,537.31,459.19z" style="fill: rgb(255, 255, 255);"/>
  <path d="M326.52,410.53h-0.86c-6.79,0-12.3,5.51-12.3,12.3v49.74h25.41v-49.75C338.77,416.05,333.29,410.56,326.52,410.53z" style="fill: rgb(255, 255, 255);"/>
</svg>